M48
; DRILL file {KiCad (5.1.10)-1} date 04/25/22 15:44:46
; FORMAT={-:-/ absolute / inch / decimal}
; #@! TF.CreationDate,2022-04-25T15:44:46+02:00
; #@! TF.GenerationSoftware,Kicad,Pcbnew,(5.1.10)-1
FMAT,2
INCH
T1C0.0157
T2C0.0197
T3C0.0276
T4C0.0374
T5C0.0394
T6C0.0709
T7C0.1260
T8C0.0433
T9C0.0866
T10C0.1181
%
G90
G05
T1
X1.0433Y-1.4961
X1.0433Y-1.6339
X1.0433Y-1.7717
X1.0433Y-2.4213
X1.0433Y-2.5394
X1.0433Y-2.6575
X1.0433Y-2.7756
X1.0827Y-1.8898
X1.1811Y-1.9685
X1.1811Y-2.4213
X1.3189Y-1.9685
X1.3189Y-2.4213
X1.3189Y-2.5394
X1.3189Y-2.6575
X1.3189Y-2.7756
X1.3386Y-1.5157
X1.3386Y-1.6732
X1.4961Y-1.5157
X1.6339Y-1.5157
X1.6339Y-1.752
X1.7717Y-1.5157
X1.8701Y-2.8346
X1.8898Y-1.5157
X1.8898Y-1.6142
X1.8898Y-1.6929
X1.9488Y-1.9193
X1.9488Y-2.1063
X1.9685Y-2.8346
X2.0669Y-1.9193
X2.0669Y-2.1063
X2.0669Y-2.8346
X2.0866Y-2.4213
X2.0866Y-2.5
X2.0866Y-2.5984
X2.126Y-1.8504
X2.185Y-2.8543
X2.2047Y-1.7717
X2.2244Y-2.7953
X2.2244Y-2.9921
X2.2244Y-3.0906
X2.2244Y-3.2087
X2.2441Y-3.2972
X2.2736Y-1.998
X2.2736Y-2.0571
X2.2835Y-1.6929
X2.3425Y-1.6681
X2.4409Y-2.2441
X2.4409Y-2.3031
X2.4409Y-2.5197
X2.4606Y-3.0709
X2.4606Y-3.2283
X2.5Y-1.7421
X2.5394Y-2.9921
X2.5591Y-2.0177
X2.5591Y-2.185
X2.5591Y-3.2283
X2.5886Y-1.7717
X2.6181Y-2.1358
X2.6181Y-2.9134
X2.628Y-1.3583
X2.6378Y-1.939
X2.6575Y-3.2283
X2.6772Y-1.6043
X2.6969Y-2.0669
X2.6969Y-2.8346
X2.7264Y-1.2598
X2.7362Y-1.5354
X2.7362Y-2.4803
X2.7461Y-1.6634
X2.7559Y-3.2283
X2.7657Y-1.7421
X2.7854Y-1.8406
X2.8051Y-2.1063
X2.815Y-2.5
X2.8248Y-1.1713
X2.874Y-1.8406
X2.8839Y-2.5886
X2.8937Y-2.7362
X2.8937Y-2.8346
X2.8937Y-2.9331
X2.9134Y-1.0827
X3.0118Y-3.0709
X3.0512Y-1.0236
X3.061Y-2.1161
X3.0807Y-1.2402
X3.1004Y-3.1299
X3.1004Y-3.2185
X3.1693Y-1.0236
X3.189Y-2.4902
X3.1988Y-1.2402
X3.2579Y-2.5591
X3.2776Y-1.0236
X3.3071Y-2.4902
X3.3169Y-1.2402
X3.3366Y-2.6378
X3.3563Y-2.0079
X3.3661Y-1.8307
X3.3957Y-1.0236
X3.4055Y-2.7067
X3.435Y-2.4902
X3.4744Y-2.7756
X3.5433Y-1.0236
X3.5433Y-1.8307
X3.5433Y-2.4902
X3.5433Y-2.8445
X3.5531Y-3.0315
X3.5531Y-3.1004
X3.563Y-2.0079
X3.6122Y-2.3622
X3.622Y-2.9232
X3.6713Y-3.248
X3.6811Y-1.0236
X3.7303Y-2.5098
X3.7402Y-1.8307
X3.7402Y-2.3819
X3.7598Y-2.0079
X3.7598Y-2.7559
X3.7598Y-2.8543
X3.7598Y-2.9724
X3.7598Y-3.0906
X3.8189Y-1.0236
X3.878Y-2.7559
X3.878Y-2.8543
X3.878Y-2.9724
X3.878Y-3.0906
X3.9469Y-1.0236
X3.9567Y-1.3976
X3.9567Y-1.8307
X3.9665Y-2.0079
X3.9764Y-2.4409
X4.0157Y-1.2795
X4.0157Y-3.0709
X4.0748Y-2.4409
X4.0846Y-1.0433
X4.0945Y-1.2205
X4.124Y-2.9724
X4.1437Y-2.5492
X4.1535Y-1.8307
X4.1634Y-1.4075
X4.1634Y-2.0079
X4.2028Y-2.6181
X4.2126Y-2.7362
X4.2126Y-2.8543
X4.2421Y-3.0217
X4.2717Y-2.126
X4.2717Y-2.2047
X4.3307Y-2.6673
X4.3307Y-2.7559
X4.3307Y-2.8445
X4.3307Y-2.9429
X4.3406Y-1.378
X4.3701Y-2.3228
X4.4094Y-2.0472
X4.4291Y-2.3819
X4.4685Y-2.6772
X4.4685Y-2.7953
X4.4685Y-2.9134
X4.4685Y-3.0315
X4.4685Y-3.2874
X4.5079Y-2.126
X4.5276Y-2.3819
X4.5472Y-1.8701
X4.5669Y-3.2874
X4.5866Y-2.6772
X4.6063Y-2.2244
X4.6063Y-2.3228
X4.6457Y-1.9783
X4.7539Y-2.0768
X4.8031Y-2.2146
X4.8031Y-2.3425
X4.8622Y-2.6969
X4.8622Y-2.7953
T2
X1.0866Y-1.1811
X1.0866Y-3.1496
X1.1143Y-1.1143
X1.1143Y-1.2479
X1.1143Y-3.0828
X1.1143Y-3.2164
X1.1811Y-1.0866
X1.1811Y-1.2756
X1.1811Y-3.0551
X1.1811Y-3.2441
X1.2479Y-1.1143
X1.2479Y-1.2479
X1.2479Y-3.0828
X1.2479Y-3.2164
X1.2756Y-1.1811
X1.2756Y-3.1496
X4.6299Y-1.1811
X4.6299Y-3.1496
X4.6576Y-1.1143
X4.6576Y-1.2479
X4.6576Y-3.0828
X4.6576Y-3.2164
X4.7244Y-1.0866
X4.7244Y-1.2756
X4.7244Y-3.0551
X4.7244Y-3.2441
X4.7912Y-1.1143
X4.7912Y-1.2479
X4.7912Y-3.0828
X4.7912Y-3.2164
X4.8189Y-1.1811
X4.8189Y-3.1496
T3
X3.4843Y-1.1417
X3.563Y-1.1417
X3.7402Y-1.1417
X3.8189Y-1.1417
X3.8976Y-1.1417
X3.9173Y-3.189
X3.9961Y-3.189
X4.0748Y-1.1417
X4.0748Y-3.189
X4.1535Y-1.1417
X4.2323Y-1.1417
X4.311Y-3.189
X4.3898Y-3.189
X4.4685Y-3.189
T4
X3.2087Y-3.1791
X3.3071Y-3.1791
X3.4055Y-3.1791
X3.5039Y-3.1791
X3.6024Y-3.1791
T5
X1.5117Y-2.007
X1.5117Y-2.737
X1.5551Y-2.9626
X1.5551Y-3.1594
X1.6117Y-2.007
X1.6117Y-2.737
X1.9317Y-2.007
X1.9317Y-2.737
X2.0317Y-2.007
X2.0317Y-2.737
X2.185Y-2.0472
X2.185Y-2.1472
X2.185Y-2.2472
X2.3628Y-2.2862
X2.3628Y-2.3862
X2.3628Y-2.4862
X2.3628Y-2.5862
X2.3628Y-2.6862
X2.3628Y-2.7862
X2.3628Y-2.8862
X2.3628Y-2.9862
X2.3628Y-3.0862
X2.3628Y-3.1862
X2.4606Y-1.4567
X2.4606Y-1.6535
X2.4606Y-1.8898
X2.4606Y-2.0866
X2.9134Y-1.4669
X2.9134Y-2.0669
X2.9628Y-2.4862
X2.9628Y-2.5862
X2.9628Y-2.6862
X2.9628Y-2.7862
X2.9628Y-2.8862
X2.9628Y-2.9862
X3.0134Y-1.4669
X3.0134Y-2.0669
X3.1134Y-1.4669
X3.1134Y-2.0669
X3.2134Y-1.4669
X3.2134Y-2.0669
X3.3134Y-1.4669
X3.3134Y-2.0669
X3.4134Y-1.4669
X3.4134Y-2.0669
X3.5134Y-1.4669
X3.5134Y-2.0669
X3.6134Y-1.4669
X3.6134Y-2.0669
X3.7134Y-1.4669
X3.7134Y-2.0669
X3.8134Y-1.4669
X3.8134Y-2.0669
X3.9134Y-1.4669
X3.9134Y-2.0669
X4.0134Y-1.4669
X4.0134Y-2.0669
X4.1134Y-1.4669
X4.1134Y-2.0669
X4.2134Y-1.4669
X4.2134Y-2.0669
X4.3134Y-1.4669
X4.3134Y-2.0669
X4.5965Y-2.4827
X4.5965Y-2.5827
X4.6965Y-2.4827
X4.6965Y-2.5827
X4.7965Y-2.4827
X4.7965Y-2.5827
T6
X1.1811Y-1.4803
X1.1811Y-1.7795
X1.1811Y-2.5551
X1.1811Y-2.8543
X1.4961Y-1.6339
X1.4961Y-1.8504
X1.7717Y-1.6339
X1.7717Y-1.8504
T7
X1.1811Y-1.1811
X1.1811Y-3.1496
X4.7244Y-1.1811
X4.7244Y-3.1496
T8
X3.4252Y-1.2087
X3.6811Y-1.2087
X4.0157Y-1.2087
X4.1339Y-3.122
X4.5276Y-3.122
T9
X2.9128Y-2.3112
X2.9128Y-3.1612
T10
X1.4961Y-1.3465
X1.7717Y-1.3465
T0
M30
